Coordinates
version=1
nRows=19
nColumns=33
inDegrees=yes

Units are S.I. units (second, meters, Newtons, ...)
Angles are in degrees.

endheader
time	ground_thorax_rot_x	ground_thorax_rot_y	ground_thorax_rot_z	ground_thorax_tx	ground_thorax_ty	ground_thorax_tz	clav_prot_r	clav_elev_r	scapula_abduction_r	scapula_elevation_r	scapula_upward_rot_r	scapula_winging_r	shoulder_elv_r	plane_of_elev_r	axial_rot_r	elbow_flexion_r	pro_sup_r	wrist_flex_r	wrist_dev_r	clav_prot_l	clav_elev_l	scapula_abduction_l	scapula_elevation_l	scapula_upward_rot_l	scapula_winging_l	shoulder_elv_l	plane_of_elev_l	axial_rot_l	elbow_flexion_l	pro_sup_l	wrist_flex_l	wrist_dev_l	
12.8600	-39.703274	2.296808	4.953135	18.736921	776.926998	-41.441019	3.382014	-45.000000	45.000000	-45.000000	38.948949	-2280.663915	-2624.405721	144.227573	-180.000000	1428.092653	-290.788232	19.799061	14.399559	12.097105	27.381490	-38.236887	-45.000000	-45.000000	-3169.686216	-263.073394	19.788782	-180.000000	1796.492404	513.839020	10.889657	-12.855804	
12.8700	-39.619873	1.533037	5.646546	16.260683	777.728587	-41.298428	3.923936	-45.000000	45.000000	-45.000000	37.646537	-2280.531721	-2624.178958	144.251085	-180.000000	1428.089417	-290.848920	19.824876	14.419813	11.534287	27.367306	-37.605669	-45.000000	-45.000000	-3169.576291	-263.146833	19.690300	-180.000000	1796.603807	515.642882	10.926868	-13.047395	
12.8800	-39.524449	0.755976	6.354787	13.790167	778.565714	-41.150102	4.478795	-45.000000	44.999999	-45.000000	36.311595	-2280.390749	-2623.950681	144.276665	-180.000000	1428.090997	-290.925463	19.855934	14.441813	10.964731	27.359531	-36.970948	-45.000000	-45.000000	-3169.451781	-263.210141	19.596360	-180.000000	1796.714325	517.544255	10.953729	-13.257505	
12.8900	-39.419793	-0.011080	7.055694	11.327603	779.435784	-40.997789	5.033882	-45.000000	44.999999	-45.000000	34.978114	-2280.244717	-2623.722661	144.303594	-180.000000	1428.097593	-291.020694	19.892843	14.465827	10.397781	27.359462	-36.345771	-45.000000	-45.000000	-3169.313048	-263.259458	19.511383	-180.000000	1796.823718	519.500140	10.968160	-13.480353	
12.9000	-39.306602	-0.745226	7.728502	8.875869	780.335939	-40.843135	5.577047	-45.000000	44.999998	-45.000000	33.677170	-2280.096640	-2623.494896	144.329526	-180.000000	1428.110528	-291.136423	19.935907	14.491611	9.844093	27.367985	-35.742447	-45.000000	-45.000000	-3169.161921	-263.291583	19.440395	-180.000000	1796.930701	521.461353	10.969571	-13.708865	
12.9100	-39.191223	-1.440573	8.365830	6.438078	781.263340	-40.687649	6.101843	-45.000000	44.999997	-45.000000	32.428531	-2279.950599	-2623.269595	144.354266	-180.000000	1428.123585	-291.271448	19.980861	14.519460	9.315117	27.384149	-35.170310	-45.000000	-45.000000	-3168.996749	-263.311760	19.376325	-180.000000	1797.029128	523.390174	10.961011	-13.937690	
12.9200	-39.074333	-2.085813	8.958361	4.017638	782.215227	-40.532722	6.602495	-45.000000	44.999994	-45.000000	31.244294	-2279.806097	-2623.045661	144.377920	-180.000000	1428.139565	-291.423177	20.029420	14.549590	8.812916	27.407468	-34.634445	-45.000000	-45.000000	-3168.820993	-263.319621	19.322430	-180.000000	1797.119968	525.250654	10.943230	-14.161138	
12.9300	-38.959846	-2.682979	9.505634	1.617588	783.189221	-40.379583	7.076737	-45.000000	44.999989	-45.000000	30.131664	-2279.666482	-2622.824741	144.398801	-180.000000	1428.153537	-291.586214	20.077651	14.581923	8.342735	27.436674	-34.136474	-45.000000	-45.000000	-3168.634536	-263.319725	19.273563	-180.000000	1797.199515	527.017329	10.919679	-14.375818	
12.9400	-38.847054	-3.226377	10.002760	-0.759187	784.183362	-40.229275	7.521663	-45.000000	44.999981	-45.000000	29.095485	-2279.531493	-2622.605604	144.417007	-180.000000	1428.168782	-291.754733	20.127114	14.616496	7.902964	27.471101	-33.676212	-45.000000	-45.000000	-3168.441792	-263.310501	19.234042	-180.000000	1797.270573	528.666361	10.890874	-14.578253	
12.9500	-38.740154	-3.728816	10.458357	-3.110262	785.196417	-40.082573	7.939433	-45.000000	44.999966	-45.000000	28.133439	-2279.405045	-2622.391023	144.432353	-180.000000	1428.177671	-291.921873	20.172095	14.653546	7.498432	27.508957	-33.252038	-45.000000	-45.000000	-3168.241157	-263.299722	19.193475	-180.000000	1797.328385	530.190008	10.860959	-14.768087	
12.9600	-38.637083	-4.179879	10.865250	-5.433321	786.227900	-39.939931	8.327831	-45.000000	44.999939	-45.000000	27.246123	-2279.284651	-2622.179316	144.447366	-180.000000	1428.188914	-292.084030	20.218822	14.693729	7.119790	27.550239	-32.863161	-45.000000	-45.000000	-3168.040186	-263.282506	19.161964	-180.000000	1797.382077	531.574916	10.827608	-14.942888	
12.9700	-38.540652	-4.587726	11.227618	-7.726228	787.278376	-39.801493	8.687264	-45.000000	44.999890	-45.000000	26.435063	-2279.174764	-2621.973404	144.459849	-180.000000	1428.196338	-292.238810	20.262524	14.736926	6.771395	27.594077	-32.508308	-45.000000	-45.000000	-3167.837939	-263.263626	19.132908	-180.000000	1797.428563	532.814871	10.793985	-15.102644	
12.9800	-38.449815	-4.947325	11.541720	-9.986403	788.349314	-39.667201	9.016812	-45.000000	44.999803	-45.000000	25.700629	-2279.072837	-2621.771944	144.471611	-180.000000	1428.205287	-292.388005	20.307337	14.784116	6.447704	27.640190	-32.187028	-45.000000	-45.000000	-3167.638268	-263.239649	19.111515	-180.000000	1797.472550	533.903508	10.758919	-15.246533	
12.9900	-38.367587	-5.273473	11.817688	-12.210638	789.443104	-39.536950	9.319808	-45.000000	44.999648	-45.000000	25.038272	-2278.981288	-2621.577297	144.480976	-180.000000	1428.208422	-292.535160	20.348341	14.835702	6.153084	27.687497	-31.895993	-45.000000	-45.000000	-3167.437621	-263.216598	19.088272	-180.000000	1797.509066	534.846753	10.726373	-15.376071	
13.0000	-38.291199	-5.555419	12.049203	-14.394911	790.562591	-39.410673	9.595357	-45.000000	44.999368	-45.000000	24.446868	-2278.895440	-2621.385995	144.489118	-180.000000	1428.214860	-292.687645	20.392394	14.892688	5.877419	27.736420	-31.634958	-45.000000	-45.000000	-3167.241751	-263.187588	19.073959	-180.000000	1797.546440	535.645773	10.693589	-15.490641	
13.0100	-38.223336	-5.805820	12.244357	-16.534683	791.710839	-39.288429	9.845734	-45.000000	44.998869	-45.000000	23.925363	-2278.818575	-2621.200924	144.493106	-180.000000	1428.215715	-292.851786	20.433609	14.954931	5.627353	27.786147	-31.399546	-45.000000	-45.000000	-3167.047240	-263.157408	19.061083	-180.000000	1797.578249	536.310354	10.665043	-15.592045	
13.0200	-38.162690	-6.019483	12.400612	-18.625191	792.890374	-39.170347	10.070473	-45.000000	44.997973	-45.000000	23.473633	-2278.746792	-2621.019978	144.495712	-180.000000	1428.215049	-293.034539	20.475765	15.023562	5.397013	27.836206	-31.188828	-45.000000	-45.000000	-3166.857497	-263.123417	19.054727	-180.000000	1797.606622	536.849683	10.638725	-15.682030	
13.0300	-38.111353	-6.202612	12.521886	-20.662335	794.103014	-39.056568	10.269805	-45.000000	44.996373	-45.000000	23.093249	-2278.681381	-2620.845766	144.496144	-180.000000	1428.207836	-293.240386	20.515717	15.098176	5.189963	27.885956	-31.000697	-45.000000	-45.000000	-3166.670889	-263.087984	19.050416	-180.000000	1797.627803	537.275730	10.616263	-15.762678	
13.0400	-38.068766	-6.341224	12.599405	-22.642735	795.348948	-38.947108	10.440671	-45.000000	44.993492	-45.000000	22.786817	-2278.619843	-2620.676515	144.497170	-180.000000	1428.200252	-293.472397	20.558902	15.179354	5.000596	27.935698	-30.835963	-45.000000	-45.000000	-3166.493373	-263.046069	19.058224	-180.000000	1797.646076	537.595977	10.594575	-15.834852	
